# xmcd
#
# Track frame offsets: 
#        150
#        10960
#        21125
#        31880
#        42363
#        52983
#        63658
#        73288
#        82800
#        94163
#        104588
#        115513
#        126000
#        137250
#        147338
#
# Disc length: 2120 seconds
#
# Revision: 0
# Processed by: cddbd v1.5.2PL0 Copyright (c) Steve Scherf et al.
# Submitted via: ExactAudioCopy v1.0b1
#
DISCID=c708460f
DTITLE=Jimmy Brown - Old Time Banjo Pickin', America's Musical Heritag
DTITLE=e Timeless Favorites
DYEAR=1997
DGENRE=Country
TTITLE0=I Don't Care
TTITLE1=Little Annie Rooney
TTITLE2=The Entertainer
TTITLE3=Rock Island Line
TTITLE4=Stars and Stripes Forever
TTITLE5=I've Been Working on the Railroad
TTITLE6=He's Got the Whole World
TTITLE7=Sweet Adeline
TTITLE8=You're a Grand Old Flag
TTITLE9=Joshua Fit De Battle
TTITLE10=Hello, My Baby
TTITLE11=Wait Till the Sun Shines
TTITLE12=In the Good Old Summertime
TTITLE13=A Hot Timee in the Old Town Tonight
TTITLE14=For He's a Jolly Good Fellow
EXTD=
EXTT0=
EXTT1=
EXTT2=
EXTT3=
EXTT4=
EXTT5=
EXTT6=
EXTT7=
EXTT8=
EXTT9=
EXTT10=
EXTT11=
EXTT12=
EXTT13=
EXTT14=
PLAYORDER=
